{"accessors":[{"bufferView":0,"componentType":5126,"count":411,"min":[-1.255473017692566,-0.041283681988716128,-1.2877599000930787],"max":[1.255473017692566,0.043478261679410937,1.2877599000930787],"type":"VEC3","name":"Cylinder.004_vertices#0_POSITION"},{"bufferView":0,"byteOffset":12,"componentType":5120,"count":411,"type":"VEC4","name":"Cylinder.004_vertices#0_TANGENT"},{"bufferView":0,"byteOffset":16,"componentType":5120,"count":411,"type":"VEC4","name":"Cylinder.004_vertices#0_NORMAL"},{"bufferView":0,"byteOffset":20,"componentType":5122,"count":411,"type":"VEC2","name":"Cylinder.004_vertices#0_TEXCOORD_0"},{"bufferView":0,"byteOffset":24,"componentType":5122,"count":411,"type":"VEC2","name":"Cylinder.004_vertices#0_TEXCOORD_1"},{"bufferView":0,"byteOffset":28,"componentType":5123,"count":411,"type":"VEC4","name":"Cylinder.004_vertices#0_COLOR_0"},{"bufferView":1,"componentType":5123,"count":798,"type":"SCALAR","name":"Cylinder.004_indices#1"},{"bufferView":0,"byteOffset":14796,"componentType":5126,"count":2816,"min":[-1.9180892705917359,-0.38718751072883608,-0.7672356367111206],"max":[1.9180892705917359,0.38718751072883608,0.7672356367111206],"type":"VEC3","name":"Cube.004_vertices#0_POSITION"},{"bufferView":0,"byteOffset":14808,"componentType":5120,"count":2816,"type":"VEC4","name":"Cube.004_vertices#0_TANGENT"},{"bufferView":0,"byteOffset":14812,"componentType":5120,"count":2816,"type":"VEC4","name":"Cube.004_vertices#0_NORMAL"},{"bufferView":0,"byteOffset":14816,"componentType":5122,"count":2816,"type":"VEC2","name":"Cube.004_vertices#0_TEXCOORD_0"},{"bufferView":0,"byteOffset":14820,"componentType":5122,"count":2816,"type":"VEC2","name":"Cube.004_vertices#0_TEXCOORD_1"},{"bufferView":0,"byteOffset":14824,"componentType":5123,"count":2816,"type":"VEC4","name":"Cube.004_vertices#0_COLOR_0"},{"bufferView":1,"byteOffset":1596,"componentType":5123,"count":4224,"type":"SCALAR","name":"Cube.004_indices#0"},{"bufferView":0,"byteOffset":116172,"componentType":5126,"count":576,"min":[-1.528145670890808,-0.6137885451316834,-0.9206828474998474],"max":[1.528145670890808,0.6137885451316834,0.9206828474998474],"type":"VEC3","name":"Cube.005_vertices#0_POSITION"},{"bufferView":0,"byteOffset":116184,"componentType":5120,"count":576,"type":"VEC4","name":"Cube.005_vertices#0_TANGENT"},{"bufferView":0,"byteOffset":116188,"componentType":5120,"count":576,"type":"VEC4","name":"Cube.005_vertices#0_NORMAL"},{"bufferView":0,"byteOffset":116192,"componentType":5122,"count":576,"type":"VEC2","name":"Cube.005_vertices#0_TEXCOORD_0"},{"bufferView":0,"byteOffset":116196,"componentType":5122,"count":576,"type":"VEC2","name":"Cube.005_vertices#0_TEXCOORD_1"},{"bufferView":0,"byteOffset":116200,"componentType":5123,"count":576,"type":"VEC4","name":"Cube.005_vertices#0_COLOR_0"},{"bufferView":1,"byteOffset":10044,"componentType":5123,"count":864,"type":"SCALAR","name":"Cube.005_indices#0"},{"bufferView":0,"byteOffset":136908,"componentType":5126,"count":576,"min":[-1.528145670890808,-0.6137885451316834,-0.9206827878952026],"max":[1.528145670890808,0.6137885451316834,0.9206827878952026],"type":"VEC3","name":"Cube.006_vertices#0_POSITION"},{"bufferView":0,"byteOffset":136920,"componentType":5120,"count":576,"type":"VEC4","name":"Cube.006_vertices#0_TANGENT"},{"bufferView":0,"byteOffset":136924,"componentType":5120,"count":576,"type":"VEC4","name":"Cube.006_vertices#0_NORMAL"},{"bufferView":0,"byteOffset":136928,"componentType":5122,"count":576,"type":"VEC2","name":"Cube.006_vertices#0_TEXCOORD_0"},{"bufferView":0,"byteOffset":136932,"componentType":5122,"count":576,"type":"VEC2","name":"Cube.006_vertices#0_TEXCOORD_1"},{"bufferView":0,"byteOffset":136936,"componentType":5123,"count":576,"type":"VEC4","name":"Cube.006_vertices#0_COLOR_0"},{"bufferView":1,"byteOffset":11772,"componentType":5123,"count":864,"type":"SCALAR","name":"Cube.006_indices#0"},{"bufferView":0,"byteOffset":157644,"componentType":5126,"count":4352,"min":[-0.2545703053474426,-2.5812501907348635,-0.2545703053474426],"max":[0.2545703053474426,2.5812501907348635,0.2545703053474426],"type":"VEC3","name":"Cube.007_vertices#0_POSITION"},{"bufferView":0,"byteOffset":157656,"componentType":5120,"count":4352,"type":"VEC4","name":"Cube.007_vertices#0_TANGENT"},{"bufferView":0,"byteOffset":157660,"componentType":5120,"count":4352,"type":"VEC4","name":"Cube.007_vertices#0_NORMAL"},{"bufferView":0,"byteOffset":157664,"componentType":5122,"count":4352,"type":"VEC2","name":"Cube.007_vertices#0_TEXCOORD_0"},{"bufferView":0,"byteOffset":157668,"componentType":5122,"count":4352,"type":"VEC2","name":"Cube.007_vertices#0_TEXCOORD_1"},{"bufferView":0,"byteOffset":157672,"componentType":5123,"count":4352,"type":"VEC4","name":"Cube.007_vertices#0_COLOR_0"},{"bufferView":1,"byteOffset":13500,"componentType":5123,"count":6528,"type":"SCALAR","name":"Cube.007_indices#0"},{"bufferView":0,"byteOffset":314316,"componentType":5126,"count":60,"min":[-0.811763346195221,-0.041684456169605258,-2.146552324295044],"max":[0.811763346195221,0.041684456169605258,2.146552324295044],"type":"VEC3","name":"Cube.008_vertices#0_POSITION"},{"bufferView":0,"byteOffset":314328,"componentType":5120,"count":60,"type":"VEC4","name":"Cube.008_vertices#0_TANGENT"},{"bufferView":0,"byteOffset":314332,"componentType":5120,"count":60,"type":"VEC4","name":"Cube.008_vertices#0_NORMAL"},{"bufferView":0,"byteOffset":314336,"componentType":5122,"count":60,"type":"VEC2","name":"Cube.008_vertices#0_TEXCOORD_0"},{"bufferView":0,"byteOffset":314340,"componentType":5122,"count":60,"type":"VEC2","name":"Cube.008_vertices#0_TEXCOORD_1"},{"bufferView":0,"byteOffset":314344,"componentType":5123,"count":60,"type":"VEC4","name":"Cube.008_vertices#0_COLOR_0"},{"bufferView":1,"byteOffset":26556,"componentType":5123,"count":108,"type":"SCALAR","name":"Cube.008_indices#0"},{"bufferView":0,"byteOffset":316476,"componentType":5126,"count":56,"min":[-1.0851064920425416,-0.6382979154586792,-1.2765958309173585],"max":[1.0851064920425416,0.6382979154586792,1.2765958309173585],"type":"VEC3","name":"Cube.009_vertices#0_POSITION"},{"bufferView":0,"byteOffset":316488,"componentType":5120,"count":56,"type":"VEC4","name":"Cube.009_vertices#0_TANGENT"},{"bufferView":0,"byteOffset":316492,"componentType":5120,"count":56,"type":"VEC4","name":"Cube.009_vertices#0_NORMAL"},{"bufferView":0,"byteOffset":316496,"componentType":5122,"count":56,"type":"VEC2","name":"Cube.009_vertices#0_TEXCOORD_0"},{"bufferView":0,"byteOffset":316500,"componentType":5122,"count":56,"type":"VEC2","name":"Cube.009_vertices#0_TEXCOORD_1"},{"bufferView":0,"byteOffset":316504,"componentType":5123,"count":56,"type":"VEC4","name":"Cube.009_vertices#0_COLOR_0"},{"bufferView":1,"byteOffset":26772,"componentType":5123,"count":84,"type":"SCALAR","name":"Cube.009_indices#0"},{"bufferView":0,"byteOffset":318492,"componentType":5126,"count":113640,"min":[-16.253787994384767,-0.009915816597640515,-16.61750602722168],"max":[16.253787994384767,0.5017487406730652,16.669570922851564],"type":"VEC3","name":"Cylinder.007_vertices#0_POSITION"},{"bufferView":0,"byteOffset":318504,"componentType":5120,"count":113640,"type":"VEC4","name":"Cylinder.007_vertices#0_TANGENT"},{"bufferView":0,"byteOffset":318508,"componentType":5120,"count":113640,"type":"VEC4","name":"Cylinder.007_vertices#0_NORMAL"},{"bufferView":0,"byteOffset":318512,"componentType":5122,"count":113640,"type":"VEC2","name":"Cylinder.007_vertices#0_TEXCOORD_0"},{"bufferView":0,"byteOffset":318516,"componentType":5122,"count":113640,"type":"VEC2","name":"Cylinder.007_vertices#0_TEXCOORD_1"},{"bufferView":0,"byteOffset":318520,"componentType":5123,"count":113640,"type":"VEC4","name":"Cylinder.007_vertices#0_COLOR_0"},{"bufferView":1,"byteOffset":26940,"componentType":5123,"count":170496,"type":"SCALAR","name":"Cylinder.007_indices#1"},{"bufferView":0,"byteOffset":4409532,"componentType":5126,"count":1536,"min":[-16.27634048461914,-0.048661310225725177,-16.622173309326173],"max":[16.27634048461914,0.5333518385887146,16.694915771484376],"type":"VEC3","name":"Cylinder.008_vertices#0_POSITION"},{"bufferView":0,"byteOffset":4409544,"componentType":5120,"count":1536,"type":"VEC4","name":"Cylinder.008_vertices#0_TANGENT"},{"bufferView":0,"byteOffset":4409548,"componentType":5120,"count":1536,"type":"VEC4","name":"Cylinder.008_vertices#0_NORMAL"},{"bufferView":0,"byteOffset":4409552,"componentType":5122,"count":1536,"type":"VEC2","name":"Cylinder.008_vertices#0_TEXCOORD_0"},{"bufferView":0,"byteOffset":4409556,"componentType":5122,"count":1536,"type":"VEC2","name":"Cylinder.008_vertices#0_TEXCOORD_1"},{"bufferView":0,"byteOffset":4409560,"componentType":5123,"count":1536,"type":"VEC4","name":"Cylinder.008_vertices#0_COLOR_0"},{"bufferView":1,"byteOffset":367932,"componentType":5123,"count":2304,"type":"SCALAR","name":"Cylinder.008_indices#0"},{"bufferView":0,"byteOffset":4464828,"componentType":5126,"count":32,"min":[-1.2142856121063233,-0.7142857313156128,-1.0714285373687745],"max":[1.2142856121063233,0.7856290936470032,1.0714285373687745],"type":"VEC3","name":"Cube.012_vertices#0_POSITION"},{"bufferView":0,"byteOffset":4464840,"componentType":5120,"count":32,"type":"VEC4","name":"Cube.012_vertices#0_TANGENT"},{"bufferView":0,"byteOffset":4464844,"componentType":5120,"count":32,"type":"VEC4","name":"Cube.012_vertices#0_NORMAL"},{"bufferView":0,"byteOffset":4464848,"componentType":5122,"count":32,"type":"VEC2","name":"Cube.012_vertices#0_TEXCOORD_0"},{"bufferView":0,"byteOffset":4464852,"componentType":5122,"count":32,"type":"VEC2","name":"Cube.012_vertices#0_TEXCOORD_1"},{"bufferView":0,"byteOffset":4464856,"componentType":5123,"count":32,"type":"VEC4","name":"Cube.012_vertices#0_COLOR_0"},{"bufferView":1,"byteOffset":372540,"componentType":5123,"count":60,"type":"SCALAR","name":"Cube.012_indices#0"},{"bufferView":0,"byteOffset":4465980,"componentType":5126,"count":1216,"min":[-0.2848036587238312,-2.5129735469818117,-0.25129735469818118],"max":[0.2848036587238312,2.7588136196136476,0.25129735469818118],"type":"VEC3","name":"Cube.013_vertices#0_POSITION"},{"bufferView":0,"byteOffset":4465992,"componentType":5120,"count":1216,"type":"VEC4","name":"Cube.013_vertices#0_TANGENT"},{"bufferView":0,"byteOffset":4465996,"componentType":5120,"count":1216,"type":"VEC4","name":"Cube.013_vertices#0_NORMAL"},{"bufferView":0,"byteOffset":4466000,"componentType":5122,"count":1216,"type":"VEC2","name":"Cube.013_vertices#0_TEXCOORD_0"},{"bufferView":0,"byteOffset":4466004,"componentType":5122,"count":1216,"type":"VEC2","name":"Cube.013_vertices#0_TEXCOORD_1"},{"bufferView":0,"byteOffset":4466008,"componentType":5123,"count":1216,"type":"VEC4","name":"Cube.013_vertices#0_COLOR_0"},{"bufferView":1,"byteOffset":372660,"componentType":5123,"count":1824,"type":"SCALAR","name":"Cube.013_indices#0"},{"bufferView":0,"byteOffset":4509756,"componentType":5126,"count":96,"min":[-0.28021976351737978,-2.472527503967285,-0.24725274741649629],"max":[0.28021976351737978,2.719485282897949,0.24725274741649629],"type":"VEC3","name":"Cube.014_vertices#0_POSITION"},{"bufferView":0,"byteOffset":4509768,"componentType":5120,"count":96,"type":"VEC4","name":"Cube.014_vertices#0_TANGENT"},{"bufferView":0,"byteOffset":4509772,"componentType":5120,"count":96,"type":"VEC4","name":"Cube.014_vertices#0_NORMAL"},{"bufferView":0,"byteOffset":4509776,"componentType":5122,"count":96,"type":"VEC2","name":"Cube.014_vertices#0_TEXCOORD_0"},{"bufferView":0,"byteOffset":4509780,"componentType":5122,"count":96,"type":"VEC2","name":"Cube.014_vertices#0_TEXCOORD_1"},{"bufferView":0,"byteOffset":4509784,"componentType":5123,"count":96,"type":"VEC4","name":"Cube.014_vertices#0_COLOR_0"},{"bufferView":1,"byteOffset":376308,"componentType":5123,"count":228,"type":"SCALAR","name":"Cube.014_indices#0"},{"bufferView":0,"byteOffset":4513212,"componentType":5126,"count":4,"min":[-1.0,0.0,-1.0],"max":[1.0,0.0,1.0],"type":"VEC3","name":"Plane_vertices#0_POSITION"},{"bufferView":0,"byteOffset":4513224,"componentType":5120,"count":4,"type":"VEC4","name":"Plane_vertices#0_TANGENT"},{"bufferView":0,"byteOffset":4513228,"componentType":5120,"count":4,"type":"VEC4","name":"Plane_vertices#0_NORMAL"},{"bufferView":0,"byteOffset":4513232,"componentType":5122,"count":4,"type":"VEC2","name":"Plane_vertices#0_TEXCOORD_0"},{"bufferView":0,"byteOffset":4513236,"componentType":5122,"count":4,"type":"VEC2","name":"Plane_vertices#0_TEXCOORD_1"},{"bufferView":0,"byteOffset":4513240,"componentType":5123,"count":4,"type":"VEC4","name":"Plane_vertices#0_COLOR_0"},{"bufferView":1,"byteOffset":376764,"componentType":5123,"count":6,"type":"SCALAR","name":"Plane_indices#0"}],"asset":{"generator":"Khronos glTF Blender I/O v3.2.43 and Asobo Studio MSFS Blender I/O v1.1.6","version":"2.0","extensions":{"ASOBO_asset_optimized":{"BoundingBoxMax":[16.27634048461914,6.821241855621338,16.694915771484376],"BoundingBoxMin":[-16.27634048461914,-6.453125,-16.622173309326173],"MajorVersion":4,"MinorVersion":4,"UseCheckerboardMaterialForMissingTextures":true,"UseOnlyFilenameForImageURI":true},"ASOBO_normal_map_convention":{"tangent_space_convention":"DirectX"}}},"bufferViews":[{"buffer":0,"byteLength":4513356,"byteStride":36,"target":34962,"name":"BufferViewVertexND"},{"buffer":0,"byteLength":376776,"byteOffset":4513356,"target":34963,"name":"BufferViewIndex"}],"extensionsRequired":["MSFT_texture_dds"],"materials":[{"name":"Helipad","normalTexture":{"index":0},"occlusionTexture":{"index":1},"pbrMetallicRoughness":{"baseColorFactor":[0.9699373841285706,1.0,1.0,1.0],"baseColorTexture":{"index":2},"metallicRoughnessTexture":{"index":1}},"extensions":{"ASOBO_tags":{"tags":["Road","Collision"]}}},{"name":"Sides","normalTexture":{"index":3},"occlusionTexture":{"index":4},"pbrMetallicRoughness":{"roughnessFactor":0.4900000095367432,"baseColorTexture":{"index":5},"metallicRoughnessTexture":{"index":4}}},{"name":"Scaffold","pbrMetallicRoughness":{"baseColorFactor":[0.4157468378543854,0.4444456696510315,0.4575316309928894,1.0],"metallicFactor":0.5800000429153442,"roughnessFactor":0.7300000190734863}},{"name":"Plate","normalTexture":{"index":6},"occlusionTexture":{"index":7},"pbrMetallicRoughness":{"baseColorTexture":{"index":8},"metallicRoughnessTexture":{"index":7}}},{"name":"Sheet","normalTexture":{"index":9},"occlusionTexture":{"index":10},"pbrMetallicRoughness":{"baseColorTexture":{"index":11},"metallicRoughnessTexture":{"index":10}}},{"name":"Mesh.002","doubleSided":true,"pbrMetallicRoughness":{"baseColorFactor":[0.5753108859062195,0.8000000715255737,0.5279508233070374,1.0],"metallicFactor":0.0}},{"name":"Material.007","doubleSided":true,"pbrMetallicRoughness":{"baseColorFactor":[0.35696133971214297,0.3691473305225372,0.4071429371833801,1.0],"metallicFactor":0.8238341808319092,"roughnessFactor":0.28238344192504885}},{"name":"glass","alphaMode":"BLEND","pbrMetallicRoughness":{"baseColorFactor":[0.11452632397413254,0.1400425136089325,0.15232576429843906,1.0],"metallicFactor":0.0,"roughnessFactor":0.0},"extensions":{"ASOBO_material_kitty_glass":{}}},{"name":"H","alphaMode":"BLEND","pbrMetallicRoughness":{"metallicFactor":0.0,"baseColorTexture":{"index":12}},"extensions":{"ASOBO_material_blend_gbuffer":{"metallicBlendFactor":0.0}}}],"meshes":[{"primitives":[{"attributes":{"COLOR_0":5,"NORMAL":2,"POSITION":0,"TANGENT":1,"TEXCOORD_0":3,"TEXCOORD_1":4},"indices":6,"material":0,"mode":4,"extras":{"ASOBO_primitive":{"PrimitiveCount":92,"VertexType":"VTX","VertexVersion":2}}},{"attributes":{"COLOR_0":5,"NORMAL":2,"POSITION":0,"TANGENT":1,"TEXCOORD_0":3,"TEXCOORD_1":4},"indices":6,"material":1,"mode":4,"extras":{"ASOBO_primitive":{"PrimitiveCount":174,"StartIndex":276,"VertexType":"VTX","VertexVersion":2}}}],"name":"Cylinder.004"},{"primitives":[{"attributes":{"COLOR_0":12,"NORMAL":9,"POSITION":7,"TANGENT":8,"TEXCOORD_0":10,"TEXCOORD_1":11},"indices":13,"material":2,"mode":4,"extras":{"ASOBO_primitive":{"PrimitiveCount":1408,"VertexType":"VTX","VertexVersion":2}}}],"name":"Cube.004"},{"primitives":[{"attributes":{"COLOR_0":19,"NORMAL":16,"POSITION":14,"TANGENT":15,"TEXCOORD_0":17,"TEXCOORD_1":18},"indices":20,"material":2,"mode":4,"extras":{"ASOBO_primitive":{"PrimitiveCount":288,"VertexType":"VTX","VertexVersion":2}}}],"name":"Cube.005"},{"primitives":[{"attributes":{"COLOR_0":26,"NORMAL":23,"POSITION":21,"TANGENT":22,"TEXCOORD_0":24,"TEXCOORD_1":25},"indices":27,"material":2,"mode":4,"extras":{"ASOBO_primitive":{"PrimitiveCount":288,"VertexType":"VTX","VertexVersion":2}}}],"name":"Cube.006"},{"primitives":[{"attributes":{"COLOR_0":33,"NORMAL":30,"POSITION":28,"TANGENT":29,"TEXCOORD_0":31,"TEXCOORD_1":32},"indices":34,"material":2,"mode":4,"extras":{"ASOBO_primitive":{"PrimitiveCount":2176,"VertexType":"VTX","VertexVersion":2}}}],"name":"Cube.007"},{"primitives":[{"attributes":{"COLOR_0":40,"NORMAL":37,"POSITION":35,"TANGENT":36,"TEXCOORD_0":38,"TEXCOORD_1":39},"indices":41,"material":3,"mode":4,"extras":{"ASOBO_primitive":{"PrimitiveCount":36,"VertexType":"VTX","VertexVersion":2}}}],"name":"Cube.008"},{"primitives":[{"attributes":{"COLOR_0":47,"NORMAL":44,"POSITION":42,"TANGENT":43,"TEXCOORD_0":45,"TEXCOORD_1":46},"indices":48,"material":4,"mode":4,"extras":{"ASOBO_primitive":{"PrimitiveCount":28,"VertexType":"VTX","VertexVersion":2}}}],"name":"Cube.009"},{"primitives":[{"attributes":{"COLOR_0":54,"NORMAL":51,"POSITION":49,"TANGENT":50,"TEXCOORD_0":52,"TEXCOORD_1":53},"indices":55,"material":5,"mode":4,"extras":{"ASOBO_primitive":{"PrimitiveCount":32772,"VertexType":"VTX","VertexVersion":2}}},{"attributes":{"COLOR_0":54,"NORMAL":51,"POSITION":49,"TANGENT":50,"TEXCOORD_0":52,"TEXCOORD_1":53},"indices":55,"material":5,"mode":4,"extras":{"ASOBO_primitive":{"BaseVertexIndex":65528,"PrimitiveCount":24060,"StartIndex":98316,"VertexType":"VTX","VertexVersion":2}}}],"name":"Cylinder.007"},{"primitives":[{"attributes":{"COLOR_0":61,"NORMAL":58,"POSITION":56,"TANGENT":57,"TEXCOORD_0":59,"TEXCOORD_1":60},"indices":62,"material":6,"mode":4,"extras":{"ASOBO_primitive":{"PrimitiveCount":768,"VertexType":"VTX","VertexVersion":2}}}],"name":"Cylinder.008"},{"primitives":[{"attributes":{"COLOR_0":68,"NORMAL":65,"POSITION":63,"TANGENT":64,"TEXCOORD_0":66,"TEXCOORD_1":67},"indices":69,"material":4,"mode":4,"extras":{"ASOBO_primitive":{"PrimitiveCount":20,"VertexType":"VTX","VertexVersion":2}}}],"name":"Cube.012"},{"primitives":[{"attributes":{"COLOR_0":75,"NORMAL":72,"POSITION":70,"TANGENT":71,"TEXCOORD_0":73,"TEXCOORD_1":74},"indices":76,"material":4,"mode":4,"extras":{"ASOBO_primitive":{"PrimitiveCount":608,"VertexType":"VTX","VertexVersion":2}}}],"name":"Cube.013"},{"primitives":[{"attributes":{"COLOR_0":82,"NORMAL":79,"POSITION":77,"TANGENT":78,"TEXCOORD_0":80,"TEXCOORD_1":81},"indices":83,"material":7,"mode":4,"extras":{"ASOBO_primitive":{"PrimitiveCount":76,"VertexType":"VTX","VertexVersion":2}}}],"name":"Cube.014"},{"primitives":[{"attributes":{"COLOR_0":89,"NORMAL":86,"POSITION":84,"TANGENT":85,"TEXCOORD_0":87,"TEXCOORD_1":88},"indices":90,"material":8,"mode":4,"extras":{"ASOBO_primitive":{"PrimitiveCount":2,"VertexType":"VTX","VertexVersion":2}}}],"name":"Plane"}],"nodes":[{"scale":[17.0,0.5,17.0],"mesh":0,"name":"Helipad"},{"translation":[-0.005123173352330923,-2.463909387588501,-0.005087623372673988],"rotation":[0.0,-0.7046406865119934,0.0,0.7095643281936646],"scale":[10.0,2.0,3.999999761581421],"mesh":1,"name":"Cube"},{"translation":[-6.998293399810791,-2.463909387588501,0.04360818862915039],"rotation":[0.0,-0.7046406865119934,0.0,0.7095643281936646],"scale":[5.0,2.0,3.000000238418579],"mesh":2,"name":"Cube.001"},{"translation":[7.003417015075684,-2.463909387588501,-0.053890228271484378],"rotation":[0.0,-0.7071068286895752,0.0,0.7071068286895752],"scale":[5.0,2.0,3.0],"mesh":3,"name":"Cube.002"},{"translation":[0.0,-34.42033386230469,0.0],"scale":[3.0,30.0,3.0],"mesh":4,"name":"Cube.003"},{"translation":[3.3847200870513918,0.27605944871902468,-22.050447463989256],"scale":[3.4035370349884035,0.17477333545684815,9.0],"mesh":5,"name":"Cube.004"},{"translation":[3.3847200870513918,2.106797456741333,-35.02830123901367],"scale":[3.4000000953674318,2.0,4.0],"mesh":6,"name":"Cube.005"},{"translation":[0.0,0.3225294351577759,0.0],"mesh":7,"name":"Helipad fence mesh"},{"translation":[0.0,0.3225294351577759,0.0],"mesh":8,"name":"Helipad fence bars"},{"translation":[3.3847200870513918,6.090333461761475,-42.03352355957031],"scale":[3.5158700942993166,2.0681591033935549,3.102238655090332],"mesh":9,"name":"Cube.007"},{"translation":[3.3847200870513918,-28.88837242126465,-42.03352355957031],"scale":[3.4000000953674318,30.0,3.0],"mesh":10,"name":"elevator frame"},{"translation":[3.3847200870513918,-28.42203140258789,-42.03352355957031],"scale":[3.3059394359588625,29.170055389404298,2.9170055389404299],"mesh":11,"name":"elevator glass"},{"translation":[0.0,0.5067892074584961,0.0],"scale":[5.041358947753906,5.041358947753906,5.041358947753906],"mesh":12,"name":"Plane"},{"scale":[3.761626720428467,0.5818865895271301,3.761626720428467],"name":"Cylinder Collision"}],"scene":0,"scenes":[{"nodes":[0,1,2,3,4,5,6,7,8,9,10,11,12,13],"name":"Scene"}],"textures":[{"extensions":{"MSFT_texture_dds":{"source":0}}},{"extensions":{"MSFT_texture_dds":{"source":1}}},{"extensions":{"MSFT_texture_dds":{"source":2}}},{"extensions":{"MSFT_texture_dds":{"source":3}}},{"extensions":{"MSFT_texture_dds":{"source":4}}},{"extensions":{"MSFT_texture_dds":{"source":5}}},{"extensions":{"MSFT_texture_dds":{"source":6}}},{"extensions":{"MSFT_texture_dds":{"source":7}}},{"extensions":{"MSFT_texture_dds":{"source":8}}},{"extensions":{"MSFT_texture_dds":{"source":9}}},{"extensions":{"MSFT_texture_dds":{"source":10}}},{"extensions":{"MSFT_texture_dds":{"source":11}}},{"extensions":{"MSFT_texture_dds":{"source":12}}}],"samplers":[{"magFilter":9729,"minFilter":9987,"wrapS":10497,"wrapT":10497}],"extensionsUsed":["ASOBO_normal_map_convention","ASOBO_tags","ASOBO_material_glass","ASOBO_material_blend_gbuffer","ASOBO_material_kitty_glass","MSFT_texture_dds","ASOBO_asset_optimized"],"buffers":[{"byteLength":4890132,"uri":"enbx_helipad.bin"}],"images":[{"uri":"PIPE004_4K_NORMALDX.PNG.DDS","name":"Pipe004_4K_NormalDX","extras":"ASOBO_image_converted_meta"},{"uri":"PIPE004_4K_ROUGHNESS.PNG.DDS","name":"Pipe004_4K_Roughness","extras":"ASOBO_image_converted_meta"},{"uri":"PIPE004_4K_COLOR.PNG.DDS","name":"Pipe004_4K_Color","extras":"ASOBO_image_converted_meta"},{"uri":"METAL032_2K_NORMALDX.PNG.DDS","name":"Metal032_2K_NormalDX","extras":"ASOBO_image_converted_meta"},{"uri":"METAL032_2K_ROUGHNESS.PNG.DDS","name":"Metal032_2K_Roughness","extras":"ASOBO_image_converted_meta"},{"uri":"METAL032_2K_COLOR.PNG.DDS","name":"Metal032_2K_Color","extras":"ASOBO_image_converted_meta"},{"uri":"DIAMONDPLATE001_2K_NORMALDX.PNG.DDS","name":"DiamondPlate001_2K_NormalDX","extras":"ASOBO_image_converted_meta"},{"uri":"DIAMONDPLATE001_2K_ROUGHNESS.PNG.DDS","name":"DiamondPlate001_2K_Roughness","extras":"ASOBO_image_converted_meta"},{"uri":"DIAMONDPLATE001_2K_COLOR.PNG.DDS","name":"DiamondPlate001_2K_Color","extras":"ASOBO_image_converted_meta"},{"uri":"CORRUGATEDMETALPANEL02_2K_NORMAL.PNG.DDS","name":"CorrugatedMetalPanel02_2K_Normal","extras":"ASOBO_image_converted_meta"},{"uri":"CORRUGATEDMETALPANEL02_2K_ROUGHNESS.PNG.DDS","name":"CorrugatedMetalPanel02_2K_Roughness","extras":"ASOBO_image_converted_meta"},{"uri":"CORRUGATEDMETALPANEL02_2K_BASECOLOR.PNG.DDS","name":"CorrugatedMetalPanel02_2K_BaseColor","extras":"ASOBO_image_converted_meta"},{"uri":"NO_MEDIPAD.PNG.DDS","name":"no_medipad","extras":"ASOBO_image_converted_meta"}]}
